<mxfile host="app.diagrams.net" modified="2023-07-19T18:38:24.456Z" agent="Mozilla/5.0 (Windows NT 10.0; Win64; x64) AppleWebKit/537.36 (KHTML, like Gecko) Chrome/114.0.0.0 Safari/537.36" etag="2_s6lfmCe1IkUeae4YoH" version="21.6.3" type="device">
  <diagram name="Page-1" id="HgrTagTBKKiSAm3B7Fo_">
    <mxGraphModel dx="794" dy="438" grid="1" gridSize="10" guides="1" tooltips="1" connect="1" arrows="1" fold="1" page="1" pageScale="1" pageWidth="827" pageHeight="1169" math="0" shadow="0">
      <root>
        <mxCell id="0" />
        <mxCell id="1" parent="0" />
        <mxCell id="cAUABDQtUTP-xCyOvp24-1" value="fichiers de contrôles internes" style="shape=process;whiteSpace=wrap;html=1;backgroundOutline=1;fillColor=#fff2cc;strokeColor=#d6b656;" vertex="1" parent="1">
          <mxGeometry x="230" y="40" width="120" height="60" as="geometry" />
        </mxCell>
        <mxCell id="cAUABDQtUTP-xCyOvp24-2" value="Site" style="rhombus;whiteSpace=wrap;html=1;fillColor=#d5e8d4;strokeColor=#82b366;" vertex="1" parent="1">
          <mxGeometry x="50" y="140" width="80" height="80" as="geometry" />
        </mxCell>
        <mxCell id="cAUABDQtUTP-xCyOvp24-3" value="Cédant" style="rhombus;whiteSpace=wrap;html=1;fillColor=#d5e8d4;strokeColor=#82b366;" vertex="1" parent="1">
          <mxGeometry x="160" y="140" width="80" height="80" as="geometry" />
        </mxCell>
        <mxCell id="cAUABDQtUTP-xCyOvp24-4" value="Type de contrôles" style="rhombus;whiteSpace=wrap;html=1;fillColor=#d5e8d4;strokeColor=#82b366;" vertex="1" parent="1">
          <mxGeometry x="270" y="140" width="80" height="80" as="geometry" />
        </mxCell>
        <mxCell id="cAUABDQtUTP-xCyOvp24-5" value="" style="endArrow=none;dashed=1;html=1;dashPattern=1 3;strokeWidth=2;rounded=0;" edge="1" parent="1">
          <mxGeometry width="50" height="50" relative="1" as="geometry">
            <mxPoint x="390" y="179.5" as="sourcePoint" />
            <mxPoint x="470" y="179.5" as="targetPoint" />
          </mxGeometry>
        </mxCell>
        <mxCell id="cAUABDQtUTP-xCyOvp24-6" value="" style="shape=curlyBracket;whiteSpace=wrap;html=1;rounded=1;flipH=1;labelPosition=right;verticalLabelPosition=middle;align=left;verticalAlign=middle;rotation=90;" vertex="1" parent="1">
          <mxGeometry x="270" y="100" width="20" height="310" as="geometry" />
        </mxCell>
        <mxCell id="cAUABDQtUTP-xCyOvp24-8" value="" style="shape=sumEllipse;perimeter=ellipsePerimeter;whiteSpace=wrap;html=1;backgroundOutline=1;fillColor=#f8cecc;strokeColor=#b85450;" vertex="1" parent="1">
          <mxGeometry x="150" y="280" width="50" height="50" as="geometry" />
        </mxCell>
        <mxCell id="cAUABDQtUTP-xCyOvp24-9" value="Normalisation et agrégation des fichiers de contrôle interne&amp;nbsp;" style="shape=ext;double=1;rounded=1;whiteSpace=wrap;html=1;fillColor=#f8cecc;strokeColor=#b85450;" vertex="1" parent="1">
          <mxGeometry x="225" y="280" width="170" height="60" as="geometry" />
        </mxCell>
        <mxCell id="cAUABDQtUTP-xCyOvp24-10" value="" style="shape=singleArrow;whiteSpace=wrap;html=1;fillColor=#fad9d5;strokeColor=#ae4132;" vertex="1" parent="1">
          <mxGeometry x="450" y="290" width="100" height="60" as="geometry" />
        </mxCell>
        <mxCell id="cAUABDQtUTP-xCyOvp24-11" value="&lt;b&gt;Détection d&#39;anomalies&lt;/b&gt;" style="shape=ext;double=1;rounded=1;whiteSpace=wrap;html=1;fillColor=#f0a30a;fontColor=#000000;strokeColor=#BD7000;" vertex="1" parent="1">
          <mxGeometry x="587" y="295" width="240" height="30" as="geometry" />
        </mxCell>
        <mxCell id="cAUABDQtUTP-xCyOvp24-12" value="&lt;b&gt;Génération de KPI&lt;/b&gt;" style="shape=ext;double=1;rounded=1;whiteSpace=wrap;html=1;fillColor=#f0a30a;fontColor=#000000;strokeColor=#BD7000;" vertex="1" parent="1">
          <mxGeometry x="587" y="330" width="240" height="30" as="geometry" />
        </mxCell>
        <mxCell id="cAUABDQtUTP-xCyOvp24-13" value="&lt;b&gt;Relance e-mail automatique&lt;/b&gt;" style="shape=ext;double=1;rounded=1;whiteSpace=wrap;html=1;fillColor=#f0a30a;fontColor=#000000;strokeColor=#BD7000;" vertex="1" parent="1">
          <mxGeometry x="587" y="370" width="240" height="30" as="geometry" />
        </mxCell>
        <mxCell id="cAUABDQtUTP-xCyOvp24-14" value="" style="sketch=0;points=[[0,0,0],[0.25,0,0],[0.5,0,0],[0.75,0,0],[1,0,0],[0,1,0],[0.25,1,0],[0.5,1,0],[0.75,1,0],[1,1,0],[0,0.25,0],[0,0.5,0],[0,0.75,0],[1,0.25,0],[1,0.5,0],[1,0.75,0]];outlineConnect=0;fontColor=#232F3E;gradientColor=#FF4F8B;gradientDirection=north;fillColor=#BC1356;strokeColor=#ffffff;dashed=0;verticalLabelPosition=bottom;verticalAlign=top;align=center;html=1;fontSize=12;fontStyle=0;aspect=fixed;shape=mxgraph.aws4.resourceIcon;resIcon=mxgraph.aws4.api_gateway;" vertex="1" parent="1">
          <mxGeometry x="290" y="370" width="78" height="78" as="geometry" />
        </mxCell>
        <mxCell id="cAUABDQtUTP-xCyOvp24-15" value="&lt;b&gt;Via une application Streamlit&lt;/b&gt;" style="rounded=1;whiteSpace=wrap;html=1;fillColor=#6d8764;fontColor=#ffffff;strokeColor=#3A5431;" vertex="1" parent="1">
          <mxGeometry x="395" y="388" width="120" height="60" as="geometry" />
        </mxCell>
      </root>
    </mxGraphModel>
  </diagram>
</mxfile>
